<?xml version="1.0" encoding="utf-8"?>
<!-- Generator: Adobe Illustrator 21.0.0, SVG Export Plug-In . SVG Version: 6.00 Build 0)  -->
<svg version="1.1" id="图层_1" xmlns="http://www.w3.org/2000/svg" xmlns:xlink="http://www.w3.org/1999/xlink" x="0px" y="0px"
	 viewBox="0 0 17.4 16.1" style="enable-background:new 0 0 17.4 16.1;" xml:space="preserve">
<style type="text/css">
	.st0{fill:#E0370F;}
</style>
<title>icon_svg</title>
<path class="st0" d="M13.3,7.8V0H0v15.9h12.2c0.3,0.1,0.7,0.2,1.1,0.1c2.3,0,4.2-1.9,4.2-4.1S15.6,7.8,13.3,7.8L13.3,7.8z M1,14.9V1
	h11.3v6.9c-2.2,0.5-3.6,2.7-3.1,5c0.2,0.8,0.6,1.5,1.2,2H1z M13.3,15.1c-1.7,0-3.2-1.4-3.2-3.1s1.4-3.2,3.1-3.2s3.2,1.4,3.2,3.1l0,0
	C16.4,13.6,15,15.1,13.3,15.1z"/>
<rect x="3" y="4.4" class="st0" width="7.4" height="1"/>
<rect x="3" y="7.2" class="st0" width="7.4" height="1"/>
<rect x="3" y="9.9" class="st0" width="5.5" height="1"/>
<polygon class="st0" points="15.2,11.6 15.2,12.6 13.8,12.6 13.8,13.9 12.8,13.9 12.8,12.6 11.1,12.6 11.1,11.6 12.8,11.6 12.8,9.7 
	13.8,9.7 13.8,11.6 "/>
</svg>
